<svg xmlns="http://www.w3.org/2000/svg" xmlns:xlink="http://www.w3.org/1999/xlink" xmlns:s="https://github.com/nturley/netlistsvg" width="647" height="629.5">
  <style>svg {
    stroke:#000;
    fill:none;
  }
  text {
    fill:#000;
    stroke:none;
    font-size:10px;
    font-weight: bold;
    font-family: "Courier New", monospace;
  }
  .nodelabel {
    text-anchor: middle;
  }
  .inputPortLabel {
    text-anchor: end;
  }
  .splitjoinBody {
    fill:#000;
  }</style>
  <g s:type="add" transform="translate(328,87)" s:width="25" s:height="25" id="cell_$add$cordic_slice.v:41$6">
    <s:alias val="$add"/>
    <circle r="12.5" cx="12.5" cy="12.5" class="cell_$add$cordic_slice.v:41$6"/>
    <line x1="7.5" x2="17.5" y1="12.5" y2="12.5" class="cell_$add$cordic_slice.v:41$6"/>
    <line x1="12.5" x2="12.5" y1="7.5" y2="17.5" class="cell_$add$cordic_slice.v:41$6"/>
    <g s:x="3" s:y="5" s:pid="A"/>
    <g s:x="3" s:y="20" s:pid="B"/>
    <g s:x="25" s:y="12.5" s:pid="Y"/>
  </g>
  <g s:type="add" transform="translate(328,239.5)" s:width="25" s:height="25" id="cell_$add$cordic_slice.v:43$9">
    <s:alias val="$add"/>
    <circle r="12.5" cx="12.5" cy="12.5" class="cell_$add$cordic_slice.v:43$9"/>
    <line x1="7.5" x2="17.5" y1="12.5" y2="12.5" class="cell_$add$cordic_slice.v:43$9"/>
    <line x1="12.5" x2="12.5" y1="7.5" y2="17.5" class="cell_$add$cordic_slice.v:43$9"/>
    <g s:x="3" s:y="5" s:pid="A"/>
    <g s:x="3" s:y="20" s:pid="B"/>
    <g s:x="25" s:y="12.5" s:pid="Y"/>
  </g>
  <g s:type="add" transform="translate(328,482.5)" s:width="25" s:height="25" id="cell_$add$cordic_slice.v:46$13">
    <s:alias val="$add"/>
    <circle r="12.5" cx="12.5" cy="12.5" class="cell_$add$cordic_slice.v:46$13"/>
    <line x1="7.5" x2="17.5" y1="12.5" y2="12.5" class="cell_$add$cordic_slice.v:46$13"/>
    <line x1="12.5" x2="12.5" y1="7.5" y2="17.5" class="cell_$add$cordic_slice.v:46$13"/>
    <g s:x="3" s:y="5" s:pid="A"/>
    <g s:x="3" s:y="20" s:pid="B"/>
    <g s:x="25" s:y="12.5" s:pid="Y"/>
  </g>
  <g s:type="lt" transform="translate(328,304.5)" s:width="25" s:height="25" id="cell_$lt$cordic_slice.v:40$4">
    <s:alias val="$lt"/>
    <circle r="12.5" cx="12.5" cy="12.5" class="cell_$lt$cordic_slice.v:40$4"/>
    <line x1="7.5" x2="17.5" y1="12.5" y2="7.5" class="cell_$lt$cordic_slice.v:40$4"/>
    <line x1="7.5" x2="17.5" y1="12.5" y2="17.5" class="cell_$lt$cordic_slice.v:40$4"/>
    <g s:x="3" s:y="5" s:pid="A"/>
    <g s:x="3" s:y="20" s:pid="B"/>
    <g s:x="25" s:y="12.5" s:pid="Y"/>
  </g>
  <g s:type="generic" transform="translate(504,79)" s:width="30" s:height="40" id="cell_$procdff$24">
    <text x="15" y="-4" class="nodelabel cell_$procdff$24" s:attribute="ref">$aldff</text>
    <rect width="30" height="80" s:generic="body" class="cell_$procdff$24"/>
    <g transform="translate(0,10)" s:x="0" s:y="10" s:pid="in0" id="port_$procdff$24~AD">
      <text x="-3" y="-4" class="inputPortLabel cell_$procdff$24">AD</text>
    </g>
    <g transform="translate(0,30)" s:x="0" s:y="10" s:pid="in0" id="port_$procdff$24~ALOAD">
      <text x="-3" y="-4" class="inputPortLabel cell_$procdff$24">ALOAD</text>
    </g>
    <g transform="translate(0,50)" s:x="0" s:y="10" s:pid="in0" id="port_$procdff$24~CLK">
      <text x="-3" y="-4" class="inputPortLabel cell_$procdff$24">CLK</text>
    </g>
    <g transform="translate(0,70)" s:x="0" s:y="10" s:pid="in0" id="port_$procdff$24~D">
      <text x="-3" y="-4" class="inputPortLabel cell_$procdff$24">D</text>
    </g>
    <g transform="translate(30,10)" s:x="30" s:y="10" s:pid="out0" id="port_$procdff$24~Q">
      <text x="5" y="-4" style="fill:#000; stroke:none" class="cell_$procdff$24">Q</text>
    </g>
  </g>
  <g s:type="generic" transform="translate(504,534.5)" s:width="30" s:height="40" id="cell_$procdff$25">
    <text x="15" y="-4" class="nodelabel cell_$procdff$25" s:attribute="ref">$aldff</text>
    <rect width="30" height="80" s:generic="body" class="cell_$procdff$25"/>
    <g transform="translate(0,10)" s:x="0" s:y="10" s:pid="in0" id="port_$procdff$25~AD">
      <text x="-3" y="-4" class="inputPortLabel cell_$procdff$25">AD</text>
    </g>
    <g transform="translate(0,30)" s:x="0" s:y="10" s:pid="in0" id="port_$procdff$25~ALOAD">
      <text x="-3" y="-4" class="inputPortLabel cell_$procdff$25">ALOAD</text>
    </g>
    <g transform="translate(0,50)" s:x="0" s:y="10" s:pid="in0" id="port_$procdff$25~CLK">
      <text x="-3" y="-4" class="inputPortLabel cell_$procdff$25">CLK</text>
    </g>
    <g transform="translate(0,70)" s:x="0" s:y="10" s:pid="in0" id="port_$procdff$25~D">
      <text x="-3" y="-4" class="inputPortLabel cell_$procdff$25">D</text>
    </g>
    <g transform="translate(30,10)" s:x="30" s:y="10" s:pid="out0" id="port_$procdff$25~Q">
      <text x="5" y="-4" style="fill:#000; stroke:none" class="cell_$procdff$25">Q</text>
    </g>
  </g>
  <g s:type="generic" transform="translate(504,406.5)" s:width="30" s:height="40" id="cell_$procdff$26">
    <text x="15" y="-4" class="nodelabel cell_$procdff$26" s:attribute="ref">$aldff</text>
    <rect width="30" height="80" s:generic="body" class="cell_$procdff$26"/>
    <g transform="translate(0,10)" s:x="0" s:y="10" s:pid="in0" id="port_$procdff$26~AD">
      <text x="-3" y="-4" class="inputPortLabel cell_$procdff$26">AD</text>
    </g>
    <g transform="translate(0,30)" s:x="0" s:y="10" s:pid="in0" id="port_$procdff$26~ALOAD">
      <text x="-3" y="-4" class="inputPortLabel cell_$procdff$26">ALOAD</text>
    </g>
    <g transform="translate(0,50)" s:x="0" s:y="10" s:pid="in0" id="port_$procdff$26~CLK">
      <text x="-3" y="-4" class="inputPortLabel cell_$procdff$26">CLK</text>
    </g>
    <g transform="translate(0,70)" s:x="0" s:y="10" s:pid="in0" id="port_$procdff$26~D">
      <text x="-3" y="-4" class="inputPortLabel cell_$procdff$26">D</text>
    </g>
    <g transform="translate(30,10)" s:x="30" s:y="10" s:pid="out0" id="port_$procdff$26~Q">
      <text x="5" y="-4" style="fill:#000; stroke:none" class="cell_$procdff$26">Q</text>
    </g>
  </g>
  <g s:type="mux" transform="translate(396.3333333333333,222)" s:width="20" s:height="40" id="cell_$procmux$16">
    <s:alias val="$pmux"/>
    <s:alias val="$mux"/>
    <s:alias val="$_MUX_"/>
    <path d="M0,0 L20,10 L20,30 L0,40 Z" class="cell_$procmux$16"/>
    <g s:x="0" s:y="10" s:pid="A"/>
    <g s:x="0" s:y="30" s:pid="B"/>
    <g s:x="10" s:y="35" s:pid="S"/>
    <g s:x="20" s:y="20" s:pid="Y"/>
  </g>
  <g s:type="mux" transform="translate(396.3333333333333,525)" s:width="20" s:height="40" id="cell_$procmux$19">
    <s:alias val="$pmux"/>
    <s:alias val="$mux"/>
    <s:alias val="$_MUX_"/>
    <path d="M0,0 L20,10 L20,30 L0,40 Z" class="cell_$procmux$19"/>
    <g s:x="0" s:y="10" s:pid="A"/>
    <g s:x="0" s:y="30" s:pid="B"/>
    <g s:x="10" s:y="35" s:pid="S"/>
    <g s:x="20" s:y="20" s:pid="Y"/>
  </g>
  <g s:type="mux" transform="translate(396.3333333333333,69.5)" s:width="20" s:height="40" id="cell_$procmux$22">
    <s:alias val="$pmux"/>
    <s:alias val="$mux"/>
    <s:alias val="$_MUX_"/>
    <path d="M0,0 L20,10 L20,30 L0,40 Z" class="cell_$procmux$22"/>
    <g s:x="0" s:y="10" s:pid="A"/>
    <g s:x="0" s:y="30" s:pid="B"/>
    <g s:x="10" s:y="35" s:pid="S"/>
    <g s:x="20" s:y="20" s:pid="Y"/>
  </g>
  <g s:type="generic" transform="translate(137,96.5)" s:width="30" s:height="40" id="cell_$sshr$cordic_slice.v:45$10">
    <text x="15" y="-4" class="nodelabel cell_$sshr$cordic_slice.v:45$10" s:attribute="ref">$sshr</text>
    <rect width="30" height="40" s:generic="body" class="cell_$sshr$cordic_slice.v:45$10"/>
    <g transform="translate(0,10)" s:x="0" s:y="10" s:pid="in0" id="port_$sshr$cordic_slice.v:45$10~A">
      <text x="-3" y="-4" class="inputPortLabel cell_$sshr$cordic_slice.v:45$10">A</text>
    </g>
    <g transform="translate(0,30)" s:x="0" s:y="10" s:pid="in0" id="port_$sshr$cordic_slice.v:45$10~B">
      <text x="-3" y="-4" class="inputPortLabel cell_$sshr$cordic_slice.v:45$10">B</text>
    </g>
    <g transform="translate(30,10)" s:x="30" s:y="10" s:pid="out0" id="port_$sshr$cordic_slice.v:45$10~Y">
      <text x="5" y="-4" style="fill:#000; stroke:none" class="cell_$sshr$cordic_slice.v:45$10">Y</text>
    </g>
  </g>
  <g s:type="generic" transform="translate(137,492)" s:width="30" s:height="40" id="cell_$sshr$cordic_slice.v:46$12">
    <text x="15" y="-4" class="nodelabel cell_$sshr$cordic_slice.v:46$12" s:attribute="ref">$sshr</text>
    <rect width="30" height="40" s:generic="body" class="cell_$sshr$cordic_slice.v:46$12"/>
    <g transform="translate(0,10)" s:x="0" s:y="10" s:pid="in0" id="port_$sshr$cordic_slice.v:46$12~A">
      <text x="-3" y="-4" class="inputPortLabel cell_$sshr$cordic_slice.v:46$12">A</text>
    </g>
    <g transform="translate(0,30)" s:x="0" s:y="10" s:pid="in0" id="port_$sshr$cordic_slice.v:46$12~B">
      <text x="-3" y="-4" class="inputPortLabel cell_$sshr$cordic_slice.v:46$12">B</text>
    </g>
    <g transform="translate(30,10)" s:x="30" s:y="10" s:pid="out0" id="port_$sshr$cordic_slice.v:46$12~Y">
      <text x="5" y="-4" style="fill:#000; stroke:none" class="cell_$sshr$cordic_slice.v:46$12">Y</text>
    </g>
  </g>
  <g s:type="sub" transform="translate(328,542.5)" s:width="25" s:height="25" id="cell_$sub$cordic_slice.v:42$8">
    <s:alias val="$sub"/>
    <circle r="12.5" cx="12.5" cy="12.5" class="cell_$sub$cordic_slice.v:42$8"/>
    <line x1="7.5" x2="17.5" y1="12.5" y2="12.5" class="cell_$sub$cordic_slice.v:42$8"/>
    <g s:x="3" s:y="5" s:pid="A"/>
    <g s:x="3" s:y="20" s:pid="B"/>
    <g s:x="25" s:y="12.5" s:pid="Y"/>
  </g>
  <g s:type="sub" transform="translate(328,27)" s:width="25" s:height="25" id="cell_$sub$cordic_slice.v:45$11">
    <s:alias val="$sub"/>
    <circle r="12.5" cx="12.5" cy="12.5" class="cell_$sub$cordic_slice.v:45$11"/>
    <line x1="7.5" x2="17.5" y1="12.5" y2="12.5" class="cell_$sub$cordic_slice.v:45$11"/>
    <g s:x="3" s:y="5" s:pid="A"/>
    <g s:x="3" s:y="20" s:pid="B"/>
    <g s:x="25" s:y="12.5" s:pid="Y"/>
  </g>
  <g s:type="sub" transform="translate(328,179.5)" s:width="25" s:height="25" id="cell_$sub$cordic_slice.v:47$14">
    <s:alias val="$sub"/>
    <circle r="12.5" cx="12.5" cy="12.5" class="cell_$sub$cordic_slice.v:47$14"/>
    <line x1="7.5" x2="17.5" y1="12.5" y2="12.5" class="cell_$sub$cordic_slice.v:47$14"/>
    <g s:x="3" s:y="5" s:pid="A"/>
    <g s:x="3" s:y="20" s:pid="B"/>
    <g s:x="25" s:y="12.5" s:pid="Y"/>
  </g>
  <g s:type="inputExt" transform="translate(393,402)" s:width="30" s:height="20" id="cell_clk_i">
    <text x="15" y="-4" class="nodelabel cell_clk_i" s:attribute="ref">clk_i</text>
    <s:alias val="$_inputExt_"/>
    <path d="M0,0 L0,20 L15,20 L30,10 L15,0 Z" class="cell_clk_i"/>
    <g s:x="28" s:y="10" s:pid="Y"/>
  </g>
  <g s:type="inputExt" transform="translate(393,337)" s:width="30" s:height="20" id="cell_rst_i">
    <text x="15" y="-4" class="nodelabel cell_rst_i" s:attribute="ref">rst_i</text>
    <s:alias val="$_inputExt_"/>
    <path d="M0,0 L0,20 L15,20 L30,10 L15,0 Z" class="cell_rst_i"/>
    <g s:x="28" s:y="10" s:pid="Y"/>
  </g>
  <g s:type="inputExt" transform="translate(137,249.5)" s:width="30" s:height="20" id="cell_current_rotation_angle_i">
    <text x="15" y="-4" class="nodelabel cell_current_rotation_angle_i" s:attribute="ref">current_rotation_angle_i</text>
    <s:alias val="$_inputExt_"/>
    <path d="M0,0 L0,20 L15,20 L30,10 L15,0 Z" class="cell_current_rotation_angle_i"/>
    <g s:x="28" s:y="10" s:pid="Y"/>
  </g>
  <g s:type="inputExt" transform="translate(12,512.5)" s:width="30" s:height="20" id="cell_shift_value_i">
    <text x="15" y="-4" class="nodelabel cell_shift_value_i" s:attribute="ref">shift_value_i</text>
    <s:alias val="$_inputExt_"/>
    <path d="M0,0 L0,20 L15,20 L30,10 L15,0 Z" class="cell_shift_value_i"/>
    <g s:x="28" s:y="10" s:pid="Y"/>
  </g>
  <g s:type="inputExt" transform="translate(12,22)" s:width="30" s:height="20" id="cell_x_i">
    <text x="15" y="-4" class="nodelabel cell_x_i" s:attribute="ref">x_i</text>
    <s:alias val="$_inputExt_"/>
    <path d="M0,0 L0,20 L15,20 L30,10 L15,0 Z" class="cell_x_i"/>
    <g s:x="28" s:y="10" s:pid="Y"/>
  </g>
  <g s:type="inputExt" transform="translate(12,447.5)" s:width="30" s:height="20" id="cell_y_i">
    <text x="15" y="-4" class="nodelabel cell_y_i" s:attribute="ref">y_i</text>
    <s:alias val="$_inputExt_"/>
    <path d="M0,0 L0,20 L15,20 L30,10 L15,0 Z" class="cell_y_i"/>
    <g s:x="28" s:y="10" s:pid="Y"/>
  </g>
  <g s:type="inputExt" transform="translate(137,184.5)" s:width="30" s:height="20" id="cell_z_i">
    <text x="15" y="-4" class="nodelabel cell_z_i" s:attribute="ref">z_i</text>
    <s:alias val="$_inputExt_"/>
    <path d="M0,0 L0,20 L15,20 L30,10 L15,0 Z" class="cell_z_i"/>
    <g s:x="28" s:y="10" s:pid="Y"/>
  </g>
  <g s:type="outputExt" transform="translate(605,79.5)" s:width="30" s:height="20" id="cell_x_o">
    <text x="15" y="-4" class="nodelabel cell_x_o" s:attribute="ref">x_o</text>
    <s:alias val="$_outputExt_"/>
    <path d="M30,0 L30,20 L15,20 L0,10 L15,0 Z" class="cell_x_o"/>
    <g s:x="0" s:y="10" s:pid="A"/>
  </g>
  <g s:type="outputExt" transform="translate(605,535)" s:width="30" s:height="20" id="cell_y_o">
    <text x="15" y="-4" class="nodelabel cell_y_o" s:attribute="ref">y_o</text>
    <s:alias val="$_outputExt_"/>
    <path d="M30,0 L30,20 L15,20 L0,10 L15,0 Z" class="cell_y_o"/>
    <g s:x="0" s:y="10" s:pid="A"/>
  </g>
  <g s:type="outputExt" transform="translate(605,407)" s:width="30" s:height="20" id="cell_z_o">
    <text x="15" y="-4" class="nodelabel cell_z_o" s:attribute="ref">z_o</text>
    <s:alias val="$_outputExt_"/>
    <path d="M30,0 L30,20 L15,20 L0,10 L15,0 Z" class="cell_z_o"/>
    <g s:x="0" s:y="10" s:pid="A"/>
  </g>
  <g s:type="constant" transform="translate(137,314.5)" s:width="30" s:height="20" id="cell_00000000000000000000000000000000">
    <text x="15" y="-4" class="nodelabel cell_00000000000000000000000000000000" s:attribute="ref">0x0</text>
    <s:alias val="$_constant_"/>
    <rect width="30" height="20" class="cell_00000000000000000000000000000000"/>
    <g s:x="30" s:y="10" s:pid="Y"/>
  </g>
  <g s:type="constant" transform="translate(393,467)" s:width="30" s:height="20" id="cell_0000000000000000">
    <text x="15" y="-4" class="nodelabel cell_0000000000000000" s:attribute="ref">0x0</text>
    <s:alias val="$_constant_"/>
    <rect width="30" height="20" class="cell_0000000000000000"/>
    <g s:x="30" s:y="10" s:pid="Y"/>
  </g>
  <line x1="40" x2="313" y1="32" y2="32" class="net_24,25,26,27,28,29,30,31,32,33,34,35,36,37,38,39"/>
  <line x1="313" x2="313" y1="32" y2="92" class="net_24,25,26,27,28,29,30,31,32,33,34,35,36,37,38,39"/>
  <circle cx="313" cy="32" r="2" style="fill:#000" class="net_24,25,26,27,28,29,30,31,32,33,34,35,36,37,38,39"/>
  <line x1="313" x2="331" y1="92" y2="92" class="net_24,25,26,27,28,29,30,31,32,33,34,35,36,37,38,39"/>
  <line x1="40" x2="120" y1="32" y2="32" class="net_24,25,26,27,28,29,30,31,32,33,34,35,36,37,38,39"/>
  <line x1="120" x2="120" y1="32" y2="502.5" class="net_24,25,26,27,28,29,30,31,32,33,34,35,36,37,38,39"/>
  <circle cx="120" cy="32" r="2" style="fill:#000" class="net_24,25,26,27,28,29,30,31,32,33,34,35,36,37,38,39"/>
  <line x1="120" x2="137" y1="502.5" y2="502.5" class="net_24,25,26,27,28,29,30,31,32,33,34,35,36,37,38,39"/>
  <line x1="40" x2="331" y1="32" y2="32" class="net_24,25,26,27,28,29,30,31,32,33,34,35,36,37,38,39"/>
  <line x1="168" x2="331" y1="107" y2="107" class="net_120,121,122,123,124,125,126,127,128,129,130,131,132,133,134,135"/>
  <line x1="168" x2="303" y1="107" y2="107" class="net_120,121,122,123,124,125,126,127,128,129,130,131,132,133,134,135"/>
  <line x1="303" x2="303" y1="107" y2="47" class="net_120,121,122,123,124,125,126,127,128,129,130,131,132,133,134,135"/>
  <circle cx="303" cy="107" r="2" style="fill:#000" class="net_120,121,122,123,124,125,126,127,128,129,130,131,132,133,134,135"/>
  <line x1="303" x2="331" y1="47" y2="47" class="net_120,121,122,123,124,125,126,127,128,129,130,131,132,133,134,135"/>
  <line x1="165" x2="313" y1="194.5" y2="194.5" class="net_56,57,58,59,60,61,62,63,64,65,66,67,68,69,70,71"/>
  <line x1="313" x2="313" y1="194.5" y2="244.5" class="net_56,57,58,59,60,61,62,63,64,65,66,67,68,69,70,71"/>
  <circle cx="313" cy="194.5" r="2" style="fill:#000" class="net_56,57,58,59,60,61,62,63,64,65,66,67,68,69,70,71"/>
  <circle cx="313" cy="244.5" r="2" style="fill:#000" class="net_56,57,58,59,60,61,62,63,64,65,66,67,68,69,70,71"/>
  <line x1="313" x2="331" y1="244.5" y2="244.5" class="net_56,57,58,59,60,61,62,63,64,65,66,67,68,69,70,71"/>
  <line x1="165" x2="313" y1="194.5" y2="194.5" class="net_56,57,58,59,60,61,62,63,64,65,66,67,68,69,70,71"/>
  <line x1="313" x2="313" y1="194.5" y2="309.5" class="net_56,57,58,59,60,61,62,63,64,65,66,67,68,69,70,71"/>
  <line x1="313" x2="331" y1="309.5" y2="309.5" class="net_56,57,58,59,60,61,62,63,64,65,66,67,68,69,70,71"/>
  <line x1="165" x2="313" y1="194.5" y2="194.5" class="net_56,57,58,59,60,61,62,63,64,65,66,67,68,69,70,71"/>
  <line x1="313" x2="313" y1="194.5" y2="184.5" class="net_56,57,58,59,60,61,62,63,64,65,66,67,68,69,70,71"/>
  <line x1="313" x2="331" y1="184.5" y2="184.5" class="net_56,57,58,59,60,61,62,63,64,65,66,67,68,69,70,71"/>
  <line x1="165" x2="331" y1="259.5" y2="259.5" class="net_4,5,6,7,8,9,10,11,12,13,14,15,16,17,18,19"/>
  <line x1="165" x2="303" y1="259.5" y2="259.5" class="net_4,5,6,7,8,9,10,11,12,13,14,15,16,17,18,19"/>
  <line x1="303" x2="303" y1="259.5" y2="199.5" class="net_4,5,6,7,8,9,10,11,12,13,14,15,16,17,18,19"/>
  <circle cx="303" cy="259.5" r="2" style="fill:#000" class="net_4,5,6,7,8,9,10,11,12,13,14,15,16,17,18,19"/>
  <line x1="303" x2="331" y1="199.5" y2="199.5" class="net_4,5,6,7,8,9,10,11,12,13,14,15,16,17,18,19"/>
  <line x1="40" x2="303" y1="457.5" y2="457.5" class="net_40,41,42,43,44,45,46,47,48,49,50,51,52,53,54,55"/>
  <line x1="303" x2="303" y1="457.5" y2="487.5" class="net_40,41,42,43,44,45,46,47,48,49,50,51,52,53,54,55"/>
  <line x1="303" x2="331" y1="487.5" y2="487.5" class="net_40,41,42,43,44,45,46,47,48,49,50,51,52,53,54,55"/>
  <line x1="40" x2="100" y1="457.5" y2="457.5" class="net_40,41,42,43,44,45,46,47,48,49,50,51,52,53,54,55"/>
  <line x1="100" x2="100" y1="457.5" y2="107" class="net_40,41,42,43,44,45,46,47,48,49,50,51,52,53,54,55"/>
  <circle cx="100" cy="457.5" r="2" style="fill:#000" class="net_40,41,42,43,44,45,46,47,48,49,50,51,52,53,54,55"/>
  <line x1="100" x2="137" y1="107" y2="107" class="net_40,41,42,43,44,45,46,47,48,49,50,51,52,53,54,55"/>
  <line x1="40" x2="100" y1="457.5" y2="457.5" class="net_40,41,42,43,44,45,46,47,48,49,50,51,52,53,54,55"/>
  <line x1="100" x2="100" y1="457.5" y2="547.5" class="net_40,41,42,43,44,45,46,47,48,49,50,51,52,53,54,55"/>
  <line x1="100" x2="331" y1="547.5" y2="547.5" class="net_40,41,42,43,44,45,46,47,48,49,50,51,52,53,54,55"/>
  <line x1="168" x2="331" y1="502.5" y2="502.5" class="net_168,169,170,171,172,173,174,175,176,177,178,179,180,181,182,183"/>
  <line x1="168" x2="303" y1="502.5" y2="502.5" class="net_168,169,170,171,172,173,174,175,176,177,178,179,180,181,182,183"/>
  <line x1="303" x2="303" y1="502.5" y2="562.5" class="net_168,169,170,171,172,173,174,175,176,177,178,179,180,181,182,183"/>
  <circle cx="303" cy="502.5" r="2" style="fill:#000" class="net_168,169,170,171,172,173,174,175,176,177,178,179,180,181,182,183"/>
  <line x1="303" x2="331" y1="562.5" y2="562.5" class="net_168,169,170,171,172,173,174,175,176,177,178,179,180,181,182,183"/>
  <line x1="167" x2="331" y1="324.5" y2="324.5" class="net_297,298,299,300,301,302,303,304,305,306,307,308,309,310,311,312,313,314,315,316,317,318,319,320,321,322,323,324,325,326,327,328"/>
  <line x1="416.3333333333333" x2="504" y1="89.5" y2="89.5" class="net_201,202,203,204,205,206,207,208,209,210,211,212,213,214,215,216"/>
  <line x1="421" x2="433" y1="347" y2="347" class="net_3"/>
  <line x1="433" x2="433" y1="347" y2="109.5" class="net_3"/>
  <circle cx="433" cy="347" r="2" style="fill:#000" class="net_3"/>
  <line x1="433" x2="504" y1="109.5" y2="109.5" class="net_3"/>
  <line x1="421" x2="433" y1="347" y2="347" class="net_3"/>
  <line x1="433" x2="433" y1="347" y2="565" class="net_3"/>
  <line x1="433" x2="504" y1="565" y2="565" class="net_3"/>
  <line x1="421" x2="433" y1="347" y2="347" class="net_3"/>
  <line x1="433" x2="433" y1="347" y2="437" class="net_3"/>
  <circle cx="433" cy="437" r="2" style="fill:#000" class="net_3"/>
  <line x1="433" x2="504" y1="437" y2="437" class="net_3"/>
  <line x1="421" x2="443" y1="412" y2="412" class="net_2"/>
  <line x1="443" x2="443" y1="412" y2="129.5" class="net_2"/>
  <circle cx="443" cy="412" r="2" style="fill:#000" class="net_2"/>
  <line x1="443" x2="504" y1="129.5" y2="129.5" class="net_2"/>
  <line x1="421" x2="443" y1="412" y2="412" class="net_2"/>
  <line x1="443" x2="443" y1="412" y2="585" class="net_2"/>
  <line x1="443" x2="504" y1="585" y2="585" class="net_2"/>
  <line x1="421" x2="443" y1="412" y2="412" class="net_2"/>
  <line x1="443" x2="443" y1="412" y2="457" class="net_2"/>
  <circle cx="443" cy="457" r="2" style="fill:#000" class="net_2"/>
  <line x1="443" x2="504" y1="457" y2="457" class="net_2"/>
  <line x1="423" x2="453" y1="477" y2="477" class="net_329,330,331,332,333,334,335,336,337,338,339,340,341,342,343,344"/>
  <line x1="453" x2="453" y1="477" y2="149.5" class="net_329,330,331,332,333,334,335,336,337,338,339,340,341,342,343,344"/>
  <circle cx="453" cy="477" r="2" style="fill:#000" class="net_329,330,331,332,333,334,335,336,337,338,339,340,341,342,343,344"/>
  <line x1="453" x2="504" y1="149.5" y2="149.5" class="net_329,330,331,332,333,334,335,336,337,338,339,340,341,342,343,344"/>
  <line x1="423" x2="453" y1="477" y2="477" class="net_329,330,331,332,333,334,335,336,337,338,339,340,341,342,343,344"/>
  <line x1="453" x2="453" y1="477" y2="605" class="net_329,330,331,332,333,334,335,336,337,338,339,340,341,342,343,344"/>
  <line x1="453" x2="504" y1="605" y2="605" class="net_329,330,331,332,333,334,335,336,337,338,339,340,341,342,343,344"/>
  <line x1="423" x2="504" y1="477" y2="477" class="net_329,330,331,332,333,334,335,336,337,338,339,340,341,342,343,344"/>
  <line x1="416.3333333333333" x2="504" y1="545" y2="545" class="net_217,218,219,220,221,222,223,224,225,226,227,228,229,230,231,232"/>
  <line x1="416.3333333333333" x2="463" y1="242" y2="242" class="net_233,234,235,236,237,238,239,240,241,242,243,244,245,246,247,248"/>
  <line x1="463" x2="463" y1="242" y2="417" class="net_233,234,235,236,237,238,239,240,241,242,243,244,245,246,247,248"/>
  <line x1="463" x2="504" y1="417" y2="417" class="net_233,234,235,236,237,238,239,240,241,242,243,244,245,246,247,248"/>
  <line x1="353" x2="383" y1="192" y2="192" class="net_249,250,251,252,253,254,255,256,257,258,259,260,261,262,263,264"/>
  <line x1="383" x2="383" y1="192" y2="232" class="net_249,250,251,252,253,254,255,256,257,258,259,260,261,262,263,264"/>
  <line x1="383" x2="396.3333333333333" y1="232" y2="232" class="net_249,250,251,252,253,254,255,256,257,258,259,260,261,262,263,264"/>
  <line x1="353" x2="396.3333333333333" y1="252" y2="252" class="net_152,153,154,155,156,157,158,159,160,161,162,163,164,165,166,167"/>
  <line x1="353" x2="406.3333333333333" y1="317" y2="317" class="net_200"/>
  <line x1="406.3333333333333" x2="406.3333333333333" y1="317" y2="257" class="net_200"/>
  <line x1="353" x2="373" y1="317" y2="317" class="net_200"/>
  <line x1="373" x2="373" y1="317" y2="575" class="net_200"/>
  <line x1="373" x2="406.3333333333333" y1="575" y2="575" class="net_200"/>
  <circle cx="373" cy="317" r="2" style="fill:#000" class="net_200"/>
  <line x1="406.3333333333333" x2="406.3333333333333" y1="575" y2="560" class="net_200"/>
  <line x1="353" x2="373" y1="317" y2="317" class="net_200"/>
  <line x1="373" x2="373" y1="317" y2="212" class="net_200"/>
  <line x1="373" x2="406.3333333333333" y1="212" y2="212" class="net_200"/>
  <line x1="406.3333333333333" x2="406.3333333333333" y1="212" y2="104.5" class="net_200"/>
  <line x1="353" x2="363" y1="495" y2="495" class="net_184,185,186,187,188,189,190,191,192,193,194,195,196,197,198,199"/>
  <line x1="363" x2="363" y1="495" y2="535" class="net_184,185,186,187,188,189,190,191,192,193,194,195,196,197,198,199"/>
  <line x1="363" x2="396.3333333333333" y1="535" y2="535" class="net_184,185,186,187,188,189,190,191,192,193,194,195,196,197,198,199"/>
  <line x1="353" x2="396.3333333333333" y1="555" y2="555" class="net_265,266,267,268,269,270,271,272,273,274,275,276,277,278,279,280"/>
  <line x1="353" x2="363" y1="39.5" y2="39.5" class="net_281,282,283,284,285,286,287,288,289,290,291,292,293,294,295,296"/>
  <line x1="363" x2="363" y1="39.5" y2="79.5" class="net_281,282,283,284,285,286,287,288,289,290,291,292,293,294,295,296"/>
  <line x1="363" x2="396.3333333333333" y1="79.5" y2="79.5" class="net_281,282,283,284,285,286,287,288,289,290,291,292,293,294,295,296"/>
  <line x1="353" x2="396.3333333333333" y1="99.5" y2="99.5" class="net_136,137,138,139,140,141,142,143,144,145,146,147,148,149,150,151"/>
  <line x1="40" x2="110" y1="522.5" y2="522.5" class="net_20,21,22,23"/>
  <line x1="110" x2="110" y1="522.5" y2="127" class="net_20,21,22,23"/>
  <circle cx="110" cy="522.5" r="2" style="fill:#000" class="net_20,21,22,23"/>
  <line x1="110" x2="137" y1="127" y2="127" class="net_20,21,22,23"/>
  <line x1="40" x2="137" y1="522.5" y2="522.5" class="net_20,21,22,23"/>
  <line x1="535" x2="605" y1="89.5" y2="89.5" class="net_72,73,74,75,76,77,78,79,80,81,82,83,84,85,86,87"/>
  <line x1="535" x2="605" y1="545" y2="545" class="net_88,89,90,91,92,93,94,95,96,97,98,99,100,101,102,103"/>
  <line x1="535" x2="605" y1="417" y2="417" class="net_104,105,106,107,108,109,110,111,112,113,114,115,116,117,118,119"/>
</svg>
